<svg width="24" height="24" viewBox="0 0 24 24" fill="none" xmlns="http://www.w3.org/2000/svg">
<path d="M12.4697 10.4697C12.1768 10.7626 12.1768 11.2374 12.4697 11.5303C12.7626 11.8232 13.2374 11.8232 13.5303 11.5303L13 11L12.4697 10.4697ZM22 2H22.75C22.75 1.58579 22.4142 1.25 22 1.25V2ZM16.6562 1.25C16.242 1.25 15.9062 1.58579 15.9062 2C15.9062 2.41421 16.242 2.75 16.6562 2.75V2V1.25ZM21.25 7.34375C21.25 7.75796 21.5858 8.09375 22 8.09375C22.4142 8.09375 22.75 7.75796 22.75 7.34375H22H21.25ZM22.75 12C22.75 11.5858 22.4142 11.25 22 11.25C21.5858 11.25 21.25 11.5858 21.25 12H22H22.75ZM12 2.75C12.4142 2.75 12.75 2.41421 12.75 2C12.75 1.58579 12.4142 1.25 12 1.25V2V2.75ZM13 11L13.5303 11.5303L22.5303 2.53033L22 2L21.4697 1.46967L12.4697 10.4697L13 11ZM22 2V1.25H16.6562V2V2.75H22V2ZM22 2H21.25V7.34375H22H22.75V2H22ZM12 22V21.25C9.62178 21.25 7.91356 21.2484 6.61358 21.0736C5.33517 20.9018 4.56445 20.5749 3.9948 20.0052L3.46447 20.5355L2.93414 21.0659C3.82895 21.9607 4.96897 22.366 6.41371 22.5603C7.83687 22.7516 9.66418 22.75 12 22.75V22ZM2 12H1.25C1.25 14.3358 1.24841 16.1631 1.43975 17.5863C1.63399 19.031 2.03933 20.1711 2.93414 21.0659L3.46447 20.5355L3.9948 20.0052C3.42514 19.4355 3.09825 18.6648 2.92637 17.3864C2.75159 16.0864 2.75 14.3782 2.75 12H2ZM22 12H21.25C21.25 14.3782 21.2484 16.0864 21.0736 17.3864C20.9018 18.6648 20.5749 19.4355 20.0052 20.0052L20.5355 20.5355L21.0659 21.0659C21.9607 20.1711 22.366 19.031 22.5603 17.5863C22.7516 16.1631 22.75 14.3358 22.75 12H22ZM12 22V22.75C14.3358 22.75 16.1631 22.7516 17.5863 22.5603C19.031 22.366 20.1711 21.9607 21.0659 21.0659L20.5355 20.5355L20.0052 20.0052C19.4355 20.5749 18.6648 20.9018 17.3864 21.0736C16.0864 21.2484 14.3782 21.25 12 21.25V22ZM12 2V1.25C9.66418 1.25 7.83687 1.24841 6.41371 1.43975C4.96897 1.63399 3.82895 2.03933 2.93414 2.93414L3.46447 3.46447L3.9948 3.9948C4.56445 3.42514 5.33517 3.09825 6.61358 2.92637C7.91356 2.75159 9.62178 2.75 12 2.75V2ZM2 12H2.75C2.75 9.62178 2.75159 7.91356 2.92637 6.61358C3.09825 5.33517 3.42514 4.56445 3.9948 3.9948L3.46447 3.46447L2.93414 2.93414C2.03933 3.82895 1.63399 4.96897 1.43975 6.41371C1.24841 7.83687 1.25 9.66418 1.25 12H2Z" fill="white"/>
</svg>
