<svg width="24" height="24" viewBox="0 0 24 24" fill="none" xmlns="http://www.w3.org/2000/svg">
<path d="M16.4486 20.7514L20.7516 16.4484C21.2202 15.9798 21.2202 15.22 20.7516 14.7514L19.5516 13.5514C19.3265 13.3263 19.2001 13.0211 19.2001 12.7028L19.2001 8.04042C19.2001 7.53581 18.8844 7.08511 18.4102 6.91266L6.49211 2.57882C6.19195 2.46967 5.85574 2.54425 5.6299 2.77009C5.30887 3.09112 5.30887 3.61162 5.6299 3.93265L9.73387 8.03661C10.009 8.31174 10.411 8.3999 10.8001 8.3999C12.1256 8.3999 13.2001 9.47442 13.2001 10.7999C13.2001 12.1254 12.1256 13.1999 10.8001 13.1999C9.47458 13.1999 8.4001 12.1254 8.4001 10.7999C8.4001 10.4108 8.31191 10.0088 8.03677 9.73368L3.93285 5.62971C3.61183 5.30868 3.09133 5.30868 2.7703 5.62971C2.54445 5.85555 2.46987 6.19176 2.57901 6.49192L6.91286 18.41C7.0853 18.8842 7.536 19.1999 8.04061 19.1999L12.703 19.1999C13.0213 19.1999 13.3265 19.3263 13.5516 19.5514L14.7516 20.7514C15.2202 21.22 15.98 21.22 16.4486 20.7514Z" stroke="white" stroke-width="1.5" stroke-linejoin="round"/>
</svg>
