<svg width="24" height="24" viewBox="0 0 24 24" fill="none" xmlns="http://www.w3.org/2000/svg">
<path d="M20.1213 4.87868L19.591 5.40901V5.40901L20.1213 4.87868ZM3.87868 4.87868L3.34835 4.34835H3.34835L3.87868 4.87868ZM8 13.25C7.58579 13.25 7.25 13.5858 7.25 14C7.25 14.4142 7.58579 14.75 8 14.75V14V13.25ZM16 14.75C16.4142 14.75 16.75 14.4142 16.75 14C16.75 13.5858 16.4142 13.25 16 13.25V14V14.75ZM7 9.75C6.58579 9.75 6.25 10.0858 6.25 10.5C6.25 10.9142 6.58579 11.25 7 11.25V10.5V9.75ZM17 11.25C17.4142 11.25 17.75 10.9142 17.75 10.5C17.75 10.0858 17.4142 9.75 17 9.75V10.5V11.25ZM9 16.75C8.58579 16.75 8.25 17.0858 8.25 17.5C8.25 17.9142 8.58579 18.25 9 18.25V17.5V16.75ZM15 18.25C15.4142 18.25 15.75 17.9142 15.75 17.5C15.75 17.0858 15.4142 16.75 15 16.75V17.5V18.25ZM21 10H20.25V16H21H21.75V10H21ZM15 22V21.25H9V22V22.75H15V22ZM3 16H3.75V10H3H2.25V16H3ZM9 22V21.25C7.56458 21.25 6.56347 21.2484 5.80812 21.1469C5.07434 21.0482 4.68577 20.8678 4.40901 20.591L3.87868 21.1213L3.34835 21.6517C3.95027 22.2536 4.70814 22.5125 5.60825 22.6335C6.48678 22.7516 7.60699 22.75 9 22.75V22ZM3 16H2.25C2.25 17.393 2.24841 18.5132 2.36652 19.3918C2.48754 20.2919 2.74643 21.0497 3.34835 21.6517L3.87868 21.1213L4.40901 20.591C4.13225 20.3142 3.9518 19.9257 3.85315 19.1919C3.75159 18.4365 3.75 17.4354 3.75 16H3ZM21 16H20.25C20.25 17.4354 20.2484 18.4365 20.1469 19.1919C20.0482 19.9257 19.8678 20.3142 19.591 20.591L20.1213 21.1213L20.6517 21.6517C21.2536 21.0497 21.5125 20.2919 21.6335 19.3918C21.7516 18.5132 21.75 17.393 21.75 16H21ZM15 22V22.75C16.393 22.75 17.5132 22.7516 18.3918 22.6335C19.2919 22.5125 20.0497 22.2536 20.6517 21.6517L20.1213 21.1213L19.591 20.591C19.3142 20.8678 18.9257 21.0482 18.1919 21.1469C17.4365 21.2484 16.4354 21.25 15 21.25V22ZM21 10H21.75C21.75 8.60699 21.7516 7.48678 21.6335 6.60825C21.5125 5.70814 21.2536 4.95027 20.6517 4.34835L20.1213 4.87868L19.591 5.40901C19.8678 5.68577 20.0482 6.07434 20.1469 6.80812C20.2484 7.56347 20.25 8.56458 20.25 10H21ZM3 10H3.75C3.75 8.56458 3.75159 7.56347 3.85315 6.80812C3.9518 6.07435 4.13225 5.68577 4.40901 5.40901L3.87868 4.87868L3.34835 4.34835C2.74643 4.95027 2.48754 5.70814 2.36652 6.60825C2.24841 7.48678 2.25 8.60699 2.25 10H3ZM16 4.00174L15.9958 4.75173C17.0893 4.75781 17.8644 4.78621 18.4527 4.89426C19.0195 4.99838 19.3475 5.16556 19.591 5.40901L20.1213 4.87868L20.6517 4.34835C20.1267 3.82342 19.4816 3.55818 18.7236 3.41895C17.9871 3.28365 17.0857 3.25777 16.0042 3.25175L16 4.00174ZM8 4.00174L7.99583 3.25175C6.9143 3.25777 6.01291 3.28365 5.27635 3.41895C4.51835 3.55818 3.87328 3.82342 3.34835 4.34835L3.87868 4.87868L4.40901 5.40901C4.65246 5.16556 4.98054 4.99838 5.54735 4.89426C6.13559 4.78621 6.91068 4.75781 8.00417 4.75173L8 4.00174ZM8 14V14.75H16V14V13.25H8V14ZM7 10.5V11.25H17V10.5V9.75H7V10.5ZM9 17.5V18.25H15V17.5V16.75H9V17.5ZM9.5 2V2.75H14.5V2V1.25H9.5V2ZM16 3.5H15.25V4.5H16H16.75V3.5H16ZM14.5 6V5.25H9.5V6V6.75H14.5V6ZM8 4.5H8.75V3.5H8H7.25V4.5H8ZM9.5 6V5.25C9.08579 5.25 8.75 4.91421 8.75 4.5H8H7.25C7.25 5.74264 8.25736 6.75 9.5 6.75V6ZM16 4.5H15.25C15.25 4.91421 14.9142 5.25 14.5 5.25V6V6.75C15.7426 6.75 16.75 5.74264 16.75 4.5H16ZM14.5 2V2.75C14.9142 2.75 15.25 3.08579 15.25 3.5H16H16.75C16.75 2.25736 15.7426 1.25 14.5 1.25V2ZM9.5 2V1.25C8.25736 1.25 7.25 2.25736 7.25 3.5H8H8.75C8.75 3.08579 9.08579 2.75 9.5 2.75V2Z" fill="white"/>
</svg>
