<svg width="24" height="24" viewBox="0 0 24 24" fill="none" xmlns="http://www.w3.org/2000/svg">
<path d="M11.9999 2.3999L14.1713 7.90553C14.3717 8.41376 14.4719 8.66787 14.6254 8.88214C14.7614 9.07207 14.9277 9.23837 15.1177 9.3744C15.332 9.52785 15.586 9.62807 16.0943 9.82851L21.5999 11.9999L16.0943 14.1713C15.586 14.3717 15.332 14.4719 15.1177 14.6254C14.9277 14.7614 14.7614 14.9277 14.6254 15.1177C14.4719 15.332 14.3717 15.586 14.1713 16.0943L11.9999 21.5999L9.82851 16.0943C9.62807 15.586 9.52785 15.332 9.3744 15.1177C9.23837 14.9277 9.07207 14.7614 8.88214 14.6254C8.66787 14.4719 8.41376 14.3717 7.90553 14.1713L2.3999 11.9999L7.90553 9.82851C8.41376 9.62807 8.66787 9.52785 8.88214 9.3744C9.07207 9.23837 9.23837 9.07207 9.3744 8.88214C9.52785 8.66787 9.62807 8.41376 9.82851 7.90553L11.9999 2.3999Z" stroke="white" stroke-width="1.5" stroke-linecap="round" stroke-linejoin="round"/>
</svg>
